<?xml version="1.0" encoding="UTF-8"?>
<svg xmlns="http://www.w3.org/2000/svg" viewBox="0 0 184.78 121.12">
  <g id="uuid-23f1fd50-1718-4eb2-8f77-c879f78abb4d" data-name="Calque 2">
    <path d="m184.63,52.56C181.76,19.42,138.17-3.88,87.27.54,36.38,4.95-2.55,35.4.33,68.55c2.88,33.15,46.47,56.44,97.36,52.03,50.9-4.41,89.82-34.87,86.95-68.02Zm-96.63,45.2c-33.7,2.92-62.51-11.91-64.35-33.13-1.84-21.22,23.99-40.8,57.68-43.72s62.51,11.91,64.35,33.13-23.99,40.8-57.68,43.72Z" style="fill: #0071ce;"/>
  </g>
  <g id="uuid-a3f5d95d-ef28-43f1-b786-bbcc74e57f83" data-name="Calque 2 - copie">
    <g>
      <path d="m145.69,58.25c.12-1.39.13-2.8,0-4.21,0-.09-.02-.18-.03-.26.12,1.5.13,3,.03,4.48Z" style="fill: #00c1de;"/>
      <path d="m88.01,97.76c-33.7,2.92-62.51-11.91-64.35-33.13-1.84-21.22,23.99-40.8,57.68-43.72,33.56-2.91,62.26,11.79,64.32,32.87,0-.09,0-.18-.01-.27-2.25-25.93-36.65-44.12-76.84-40.64S-2.13,40.2.12,66.13c2.25,25.93,36.65,44.12,76.84,40.64,37.72-3.27,67.12-24.48,68.73-48.51-1.64,19.54-26.23,36.78-57.68,39.51Z" style="fill: #00c1de;"/>
    </g>
  </g>
</svg>