<svg class="svg-icon" style="width: 1em;height: 1em;vertical-align: middle;fill: #fff;overflow: hidden;" viewBox="0 0 1024 1024" version="1.1" xmlns="http://www.w3.org/2000/svg"><path d="M121.346686 950.752504h781.306628v73.247496H121.346686zM579.998093 333.886505L495.885551 500.951836h182.203147L451.570815 764.154506l53.165475-170.17835H345.911302L459.139723 333.886505h120.85837zM157.970434 91.742489h146.494993v61.039581H157.970434zM157.970434 0h146.494993v61.03958H157.970434zM719.534573 91.742489h146.494993v61.039581h-146.494993zM719.534573 0.610396h146.494993v61.03958h-146.494993zM438.752504 91.742489h146.494992v61.039581H438.752504zM439.179781 0.610396h145.640438v61.03958H439.179781z"  /><path d="M939.277062 903.080591H84.722938a36.623748 36.623748 0 0 1-36.623749-36.623748v-671.435384h891.177873a36.623748 36.623748 0 0 1 36.623749 36.623748v634.811636a36.623748 36.623748 0 0 1-36.623749 36.623748z m-817.930376-73.247496h781.306628v-561.564139H121.346686z"  /></svg>